# Blender v2.64 (sub 0) OBJ File: ''
# www.blender.org
mtllib spaceship3.mtl
o Cube.001
v -1.108547 -0.222980 1.898343
v -0.719477 -1.293010 2.234966
v 0.014432 -1.280397 2.237450
v -0.002931 -0.203979 1.902084
v -0.378217 -2.213776 1.738831
v 0.032035 -2.206726 1.740219
v -0.764919 -0.013146 -0.002589
v -0.592842 -0.444073 -0.080221
v -0.592765 -0.643298 0.909232
v -0.766746 -0.210789 0.977901
v -0.378217 -2.213776 1.738831
v -0.719477 -1.293010 2.234966
v 0.000078 -0.197610 0.980495
v -0.017433 0.786378 1.157870
v -0.002931 -0.203979 1.902084
v 0.014432 -1.280397 2.237450
v -1.017280 0.769195 1.154487
v -1.108547 -0.222980 1.898343
v 0.017585 -1.183213 0.812078
v 0.032035 -2.206726 1.740219
v -1.017076 1.144211 -0.810147
v -0.017511 0.983988 0.177375
v -0.017229 1.161395 -0.806763
v -1.017217 1.055508 -0.318077
v -1.017358 0.966805 0.173991
v 0.017511 -0.983988 -0.177375
v -0.982054 -0.823765 -1.164895
v 0.017792 -0.806581 -1.161512
v -0.765832 -0.111967 0.487657
v -0.764919 -0.013146 -0.002589
v -0.882242 0.073539 -0.495054
v -2.087916 0.521685 -1.884118
v -2.205239 0.608370 -2.376584
v -0.999565 0.160223 -0.987520
v -0.892013 0.279202 1.066193
v -0.766746 -0.210789 0.977901
v -2.325530 0.668585 -1.857705
v -2.325389 0.757288 -2.349774
v -0.891576 0.378016 0.575948
v -0.016995 1.309086 -1.626065
v -1.016842 1.291903 -1.629448
v -1.016959 1.218057 -1.219797
v 0.000281 0.177407 -0.984138
v 0.000516 0.325099 -1.803439
v -0.981821 -0.676072 -1.984196
v -0.999331 0.307916 -1.806822
v 0.018027 -0.658889 -1.980813
v -1.008086 0.799909 -1.718135
v -0.999448 0.234070 -1.397172
v -1.003943 0.406221 -0.943177
v -1.008321 0.652217 -0.898834
v -1.012698 0.898214 -0.854490
v -1.017319 0.868000 0.664238
v -1.017280 0.769195 1.154487
v -2.322562 0.695055 -2.869050
v -1.017358 0.966805 0.173991
v -2.325643 0.578332 -1.365916
v -2.322659 0.700482 -2.867881
v -2.325160 0.841038 -2.842580
v -2.325248 0.845991 -2.841842
v -2.088981 0.431417 -1.392331
v -2.087916 0.521685 -1.884118
v -2.325530 0.668585 -1.857705
v 1.102685 -0.184978 1.905826
v 0.748344 -1.267785 2.239933
v 0.442288 -2.199675 1.741607
v 0.764919 0.013146 0.002589
v 0.766903 -0.184432 0.983090
v 0.608354 -0.622655 0.913297
v 0.608280 -0.423431 -0.076156
v 0.748344 -1.267785 2.239933
v 0.442288 -2.199675 1.741607
v 1.102685 -0.184978 1.905826
v 0.982414 0.803561 1.161254
v 0.982617 1.178578 -0.803380
v 0.982476 1.089875 -0.311310
v 0.982336 1.001171 0.180758
v 1.017639 -0.789398 -1.158128
v 0.765911 -0.085643 0.492840
v 0.766903 -0.184432 0.983090
v 0.882523 0.103868 -0.489082
v 2.199062 0.684062 -2.361680
v 2.081457 0.593340 -1.870009
v 1.000128 0.194590 -0.980753
v 0.874658 0.309564 1.072172
v 0.982414 0.803561 1.161254
v 2.313699 0.748315 -1.842006
v 2.313839 0.837017 -2.334074
v 0.874143 0.408361 0.581923
v 0.982852 1.326269 -1.622681
v 0.982734 1.252423 -1.213030
v 1.017874 -0.641706 -1.977429
v 1.000362 0.342282 -1.800055
v 0.991607 0.834276 -1.711368
v 1.000245 0.268436 -1.390405
v 0.995750 0.440587 -0.936410
v 0.991373 0.686583 -0.892067
v 0.986995 0.932581 -0.847723
v 0.982375 0.902366 0.671005
v 2.316666 0.774784 -2.853351
v 2.313586 0.658061 -1.350217
v 0.982336 1.001171 0.180758
v 2.316569 0.780211 -2.852181
v 2.314068 0.920768 -2.826880
v 2.313980 0.925720 -2.826143
v 2.082295 0.503104 -1.378215
v 0.764919 0.013146 0.002589
v 2.081457 0.593340 -1.870009
v 2.313699 0.748315 -1.842006
vt 0.331777 0.828991
vt 0.258950 0.809609
vt 0.258955 0.710625
vt 0.331783 0.679873
vt 0.088707 0.679873
vt 0.067026 0.827593
vt 0.039045 0.830843
vt 0.038651 0.685687
vt 0.437481 0.254908
vt 0.499083 0.274789
vt 0.469750 0.395803
vt 0.408406 0.374707
vt 0.625406 0.567731
vt 0.476133 0.564753
vt 0.679439 0.126977
vt 0.734331 0.000000
vt 0.783502 0.148260
vt 0.320826 0.125496
vt 0.186026 0.129213
vt 0.142456 0.004110
vt 0.291517 0.000000
vt 0.625503 0.254367
vt 0.783362 0.298903
vt 0.193948 0.405780
vt 0.325104 0.263778
vt 0.328749 0.402062
vt 0.192126 0.336637
vt 0.190304 0.267495
vt 0.872071 0.752940
vt 0.767624 0.713666
vt 0.787572 0.607798
vt 0.892019 0.647072
vt 0.599039 0.139976
vt 0.615453 0.206637
vt 0.583666 0.326148
vt 0.000000 0.000000
vt 0.911817 0.456538
vt 0.931614 0.411116
vt 0.958591 0.648986
vt 0.938793 0.694408
vt 0.465411 0.119735
vt 0.451446 0.187321
vt 0.768124 0.418797
vt 0.820342 0.411116
vt 0.887241 0.084185
vt 0.963488 0.227267
vt 0.960698 0.399245
vt 0.887495 0.307633
vt 0.924097 0.353439
vt 0.455615 0.581133
vt 0.452252 0.642874
vt 0.428066 0.636746
vt 0.427943 0.567731
vt 0.696601 0.473873
vt 0.625577 0.472755
vt 0.625503 0.411116
vt 0.696511 0.412205
vt 0.331783 0.517185
vt 0.196983 0.520902
vt 0.195466 0.463341
vt 0.427943 0.568019
vt 0.427518 0.706352
vt 0.332208 0.706064
vt 0.332632 0.567731
vt 0.583336 0.664378
vt 0.604419 0.765499
vt 0.477322 0.745689
vt 0.456239 0.644567
vt 0.498406 0.846810
vt 0.614961 0.816060
vt 0.625503 0.866620
vt 0.491875 0.020241
vt 0.625503 0.040482
vt 0.478643 0.069988
vt 0.427094 0.844686
vt 0.331783 0.844398
vt 0.498181 0.567731
vt 0.625277 0.587542
vt 0.425061 0.010120
vt 0.432004 0.114674
vt 0.398597 0.109614
vt 0.358247 0.000000
vt 0.365190 0.104554
vt 0.331783 0.099493
vt 0.345015 0.049747
vt 0.767624 0.474991
vt 0.767519 0.413294
vt 0.918996 0.739829
vt 0.892019 0.501959
vt 0.958591 0.411116
vt 0.999811 0.466667
vt 1.000000 0.800348
vt 0.958999 0.744644
vt 0.997935 0.396172
vt 0.963488 0.399245
vt 0.964304 0.072575
vt 0.965070 0.072528
vt 0.783502 0.084185
vt 0.818082 0.084716
vt 0.866471 0.410784
vt 0.865778 0.410791
vt 0.887241 0.085777
vt 0.886995 0.411116
vt 0.449364 0.642874
vt 0.448394 0.709216
vt 0.427943 0.709174
vt 0.428116 0.651931
vt 0.692716 0.791036
vt 0.720795 0.803438
vt 0.003645 0.679873
vt 0.001822 0.610731
vt 0.000240 0.716014
vt 0.038651 0.679873
vt 0.038510 0.919268
vt 0.000000 0.956301
vt 0.127306 0.681742
vt 0.127433 0.734441
vt 0.088719 0.732614
vt 0.000000 0.541589
vt 0.694314 0.411116
vn -0.008341 0.297321 0.954741
vn -0.008341 0.297322 0.954741
vn 0.005145 -0.472866 0.881119
vn -0.930683 -0.358642 -0.072140
vn -0.929210 -0.361926 -0.074688
vn -0.888861 -0.302986 -0.343694
vn -0.949898 -0.253643 -0.182645
vn 0.999847 0.017183 0.003384
vn -0.013027 0.600574 0.799463
vn 0.999847 0.017182 0.003383
vn -0.017511 0.983988 0.177375
vn -0.017513 0.980138 0.197540
vn -0.668394 -0.729183 -0.146769
vn -0.668395 -0.729182 -0.146768
vn 0.017511 -0.983988 -0.177375
vn -0.552577 -0.704738 0.444975
vn 0.000000 0.000000 0.000000
vn -0.876190 0.472777 0.093666
vn -0.225190 -0.967310 -0.116619
vn -0.225189 -0.967310 -0.116619
vn -0.928648 -0.081752 0.361843
vn -0.909003 -0.389638 0.147973
vn 0.011001 -0.465878 -0.884780
vn -0.582285 -0.550618 -0.598133
vn -0.622994 -0.431731 -0.652293
vn -0.963782 -0.218955 -0.152260
vn -0.186742 -0.221756 0.957054
vn -0.783134 -0.611950 -0.110537
vn -0.527614 -0.849152 -0.023773
vn -0.969533 -0.239775 -0.050140
vn -0.969760 -0.239081 -0.049053
vn -0.017511 0.983988 0.177374
vn -0.017512 0.983988 0.177375
vn -0.017511 0.983988 0.177372
vn 0.000281 0.177407 -0.984138
vn 0.000281 0.177406 -0.984138
vn 0.000282 0.177405 -0.984138
vn -0.999847 -0.017182 -0.003382
vn -0.999847 -0.017183 -0.003383
vn 0.410189 -0.897555 -0.161677
vn -0.999847 -0.017183 -0.003384
vn -0.999847 -0.017184 -0.003384
vn -0.969539 -0.239939 -0.049226
vn -0.969765 -0.239246 -0.048141
vn -0.225190 -0.967311 -0.116619
vn -0.468552 0.866016 0.174575
vn -0.445561 0.880564 0.161499
vn 0.827638 0.113801 -0.549605
vn 0.826998 0.132549 -0.546355
vn 0.827617 0.113806 -0.549635
vn 0.830362 0.096452 -0.548813
vn 0.827617 0.113805 -0.549635
vn 0.827623 0.114370 -0.549509
vn 0.973389 0.057035 -0.221948
vn 0.783134 0.611950 0.110538
vn -0.818959 -0.298484 0.490116
vn -0.485280 -0.830751 0.272682
vn -0.782057 -0.299203 0.546684
vn -0.446977 0.880378 0.158575
vn -0.139057 -0.973959 -0.179073
vn -0.120603 -0.973084 -0.196375
vn -0.533481 -0.831897 -0.152792
vn -0.531907 -0.832683 -0.153993
vn -0.446974 0.880380 0.158573
vn -0.446976 0.880379 0.158574
vn 0.941582 -0.329775 -0.068357
vn 0.942924 -0.326442 -0.065800
vn 0.959266 -0.220832 -0.176185
vn 0.901052 -0.272224 -0.337637
vn -0.999847 -0.017182 -0.003384
vn 0.694033 -0.705769 -0.142158
vn 0.573443 -0.685386 0.448785
vn 0.875622 0.473839 0.093605
vn 0.259079 -0.958988 -0.114980
vn 0.259079 -0.958988 -0.114981
vn 0.928439 -0.049837 0.368127
vn 0.920832 -0.358191 0.154165
vn 0.129217 0.969130 0.209978
vn 0.604894 -0.530216 -0.594116
vn 0.971744 -0.185691 -0.145710
vn 0.641860 -0.409994 -0.648013
vn 0.451179 -0.248148 0.857240
vn 0.556629 -0.830518 -0.020103
vn 0.804430 -0.584665 -0.105164
vn 0.977712 -0.205612 -0.042463
vn 0.977516 -0.206313 -0.043551
vn -0.017511 0.983988 0.177373
vn -0.017510 0.983988 0.177375
vn 0.000282 0.177407 -0.984138
vn 0.999847 0.017184 0.003385
vn 0.999847 0.017183 0.003383
vn -0.558907 0.816104 0.146959
vn 0.977716 -0.205777 -0.041550
vn 0.977522 -0.206477 -0.042637
vn 0.413937 0.895336 0.164407
vn 0.437326 0.881584 0.177641
vn -0.827349 0.104105 -0.551956
vn -0.827322 0.085359 -0.555205
vn -0.827301 0.085365 -0.555235
vn -0.829465 0.067826 -0.554426
vn -0.827327 0.085931 -0.555109
vn -0.827301 0.085364 -0.555235
vn -0.804430 0.584665 0.105165
vn -0.973250 0.023581 -0.228535
vn 0.825397 -0.270224 0.495681
vn 0.511683 -0.813618 0.276055
vn 0.788160 -0.272218 0.551998
vn 0.415379 0.895199 0.161493
vn 0.155294 -0.968342 -0.195441
vn 0.173650 -0.968585 -0.178015
vn 0.561235 -0.813896 -0.150293
vn 0.562772 -0.813057 -0.149083
vn 0.415376 0.895200 0.161491
usemtl Material.001
s off
f 1/1/1 2/2/1 3/3/1
f 1/1/2 3/3/2 4/4/2
f 2/5/3 5/6/3 6/7/3
f 2/5/3 6/7/3 3/8/3
f 7/9/4 8/10/4 9/11/4
f 7/9/5 9/11/5 10/12/5
f 10/12/6 9/11/6 11/13/6
f 10/12/7 11/13/7 12/14/7
f 13/15/8 14/16/8 15/17/8
f 14/18/9 17/19/9 18/20/9
f 14/18/9 18/20/9 15/21/9
f 19/22/10 13/15/10 16/23/10
f 21/24/11 22/25/11 23/26/11
f 21/24/11 24/27/11 22/25/11
f 24/27/11 25/28/11 22/25/11
f 25/28/12 17/19/12 14/18/12
f 25/28/12 14/18/12 22/25/12
f 8/29/13 26/30/13 19/31/13
f 8/29/14 19/31/14 9/32/14
f 27/33/15 28/34/15 26/35/15
f 27/33/16 26/35/16 8/10/16
f 20/36/17 3/36/17 6/36/17
f 10/36/18 29/36/18 30/36/18
f 31/37/19 7/38/19 32/39/19
f 31/37/20 32/39/20 33/40/20
f 34/41/21 27/33/21 8/10/21
f 34/41/22 8/10/22 7/9/22
f 34/41/17 7/9/17 31/42/17
f 12/36/17 11/36/17 5/36/17
f 12/36/17 5/36/17 2/36/17
f 20/43/23 11/44/23 9/32/23
f 20/43/24 9/32/24 19/31/24
f 12/45/25 18/46/25 17/47/25
f 12/45/26 17/47/26 10/48/26
f 17/47/27 35/49/27 36/48/27
f 37/50/28 38/51/28 33/52/28
f 37/50/29 33/52/29 32/53/29
f 39/54/30 29/55/30 36/56/30
f 39/54/31 36/56/31 35/57/31
f 40/58/32 41/59/32 23/26/32
f 41/59/33 42/60/33 23/26/33
f 42/60/34 21/24/34 23/26/34
f 23/61/8 43/62/8 44/63/8
f 23/61/8 44/63/8 40/64/8
f 18/36/17 1/36/17 15/36/17
f 15/36/17 1/36/17 4/36/17
f 2/36/17 1/36/17 18/36/17
f 2/36/17 18/36/17 12/36/17
f 6/36/17 5/36/17 11/36/17
f 6/36/17 11/36/17 20/36/17
f 16/36/17 15/36/17 4/36/17
f 16/36/17 4/36/17 3/36/17
f 45/65/35 46/66/35 44/67/35
f 45/65/36 44/67/36 47/68/36
f 46/66/35 40/69/35 44/67/35
f 46/66/37 48/70/37 40/69/37
f 48/70/36 41/71/36 40/69/36
f 46/72/38 45/73/38 27/33/38
f 46/72/39 27/33/39 34/41/39
f 46/72/40 34/41/40 49/74/40
f 43/62/8 28/75/8 47/76/8
f 43/62/8 47/76/8 44/63/8
f 28/77/15 27/78/15 45/65/15
f 28/77/15 45/65/15 47/68/15
f 48/79/41 46/72/41 49/74/41
f 34/41/39 48/79/39 49/74/39
f 34/41/39 50/80/39 48/79/39
f 50/80/39 51/81/39 48/79/39
f 51/81/39 41/82/39 48/79/39
f 51/81/42 52/83/42 41/82/42
f 52/83/41 21/84/41 42/85/41
f 52/83/41 42/85/41 41/82/41
f 53/86/43 39/54/43 35/57/43
f 53/86/44 35/57/44 54/87/44
f 33/40/45 55/88/45 34/89/45
f 33/40/19 34/89/19 31/37/19
f 53/90/46 56/91/46 37/92/46
f 53/90/47 37/92/47 57/93/47
f 50/94/48 34/95/48 55/96/48
f 50/94/49 55/96/49 58/97/49
f 21/98/50 52/99/50 59/100/50
f 21/98/51 59/100/51 60/101/51
f 59/100/52 52/99/52 50/102/52
f 59/100/53 50/102/53 55/103/53
f 33/104/54 58/105/54 60/106/54
f 33/104/55 60/106/55 38/107/55
f 61/108/56 29/55/56 39/54/56
f 57/109/57 61/108/57 39/54/57
f 53/86/58 57/109/58 39/54/58
f 24/27/59 21/24/59 60/110/59
f 24/27/59 60/110/59 38/111/59
f 61/112/60 62/113/60 30/114/60
f 61/112/61 30/114/61 29/115/61
f 61/5/62 57/116/62 37/117/62
f 61/5/63 37/117/63 32/118/63
f 38/111/64 63/119/64 25/28/64
f 38/111/65 25/28/65 24/27/65
f 64/1/2 4/4/2 3/3/2
f 64/1/2 3/3/2 65/2/2
f 65/5/3 3/8/3 6/7/3
f 65/5/3 6/7/3 66/6/3
f 67/9/66 68/12/66 69/11/66
f 67/9/67 69/11/67 70/10/67
f 68/12/68 71/14/68 72/13/68
f 68/12/69 72/13/69 69/11/69
f 13/15/70 16/23/70 15/17/70
f 14/18/9 15/21/9 73/20/9
f 14/18/9 73/20/9 74/19/9
f 19/22/41 20/120/41 16/23/41
f 75/24/11 23/26/11 22/25/11
f 75/24/11 22/25/11 76/27/11
f 22/25/11 77/28/11 76/27/11
f 77/28/12 22/25/12 14/18/12
f 77/28/12 14/18/12 74/19/12
f 70/29/71 69/32/71 19/31/71
f 70/29/71 19/31/71 26/30/71
f 78/33/72 70/10/72 26/35/72
f 78/33/15 26/35/15 28/34/15
f 20/36/17 3/36/17 16/36/17
f 67/36/73 79/36/73 80/36/73
f 81/37/74 82/40/74 83/39/74
f 81/37/75 83/39/75 67/38/75
f 84/41/76 70/10/76 78/33/76
f 84/41/77 67/9/77 70/10/77
f 84/41/78 81/42/78 67/9/78
f 71/36/17 65/36/17 66/36/17
f 71/36/17 66/36/17 72/36/17
f 20/43/79 19/31/79 69/32/79
f 20/43/23 69/32/23 72/44/23
f 71/45/80 68/48/80 74/47/80
f 71/45/81 74/47/81 73/46/81
f 68/48/82 85/49/82 86/47/82
f 87/50/83 83/53/83 82/52/83
f 87/50/84 82/52/84 88/51/84
f 89/54/85 85/57/85 80/56/85
f 89/54/86 80/56/86 79/55/86
f 40/58/87 23/26/87 90/59/87
f 23/26/88 91/60/88 90/59/88
f 23/26/34 75/24/34 91/60/34
f 15/36/17 4/36/17 64/36/17
f 15/36/17 64/36/17 73/36/17
f 65/36/17 71/36/17 73/36/17
f 65/36/17 73/36/17 64/36/17
f 6/36/17 20/36/17 72/36/17
f 6/36/17 72/36/17 66/36/17
f 92/65/36 47/68/36 44/67/36
f 92/65/89 44/67/89 93/66/89
f 93/66/37 44/67/37 94/70/37
f 44/67/89 40/69/89 94/70/89
f 40/69/36 90/71/36 94/70/36
f 93/72/90 78/33/90 92/73/90
f 93/72/91 84/41/91 78/33/91
f 93/72/92 95/74/92 84/41/92
f 28/77/15 47/68/15 92/65/15
f 28/77/15 92/65/15 78/78/15
f 95/74/8 93/72/8 94/79/8
f 84/41/91 95/74/91 94/79/91
f 84/41/8 94/79/8 96/80/8
f 94/79/8 97/81/8 96/80/8
f 94/79/91 90/82/91 97/81/91
f 90/82/91 98/83/91 97/81/91
f 91/85/8 75/84/8 98/83/8
f 90/82/8 91/85/8 98/83/8
f 99/86/93 86/87/93 85/57/93
f 99/86/94 85/57/94 89/54/94
f 82/40/74 81/37/74 84/89/74
f 82/40/74 84/89/74 100/88/74
f 99/90/95 101/93/95 87/92/95
f 99/90/96 87/92/96 102/91/96
f 96/94/97 103/97/97 100/96/97
f 96/94/98 100/96/98 84/95/98
f 104/100/99 98/99/99 75/98/99
f 104/100/100 75/98/100 105/101/100
f 104/100/101 100/103/101 96/102/101
f 104/100/102 96/102/102 98/99/102
f 82/104/103 88/107/103 105/106/103
f 82/104/104 105/106/104 103/105/104
f 89/54/105 79/55/105 106/108/105
f 89/54/106 106/108/106 101/109/106
f 99/86/107 89/54/107 101/109/107
f 76/27/108 88/111/108 105/110/108
f 76/27/108 105/110/108 75/24/108
f 106/112/109 79/115/109 107/114/109
f 106/112/110 107/114/110 108/113/110
f 106/5/111 83/118/111 87/117/111
f 106/5/112 87/117/112 101/116/112
f 88/111/108 76/27/108 77/28/108
f 88/111/113 77/28/113 109/119/113
